<mxfile host="app.diagrams.net" modified="2024-01-11T12:57:34.773Z" agent="Mozilla/5.0 (Macintosh; Intel Mac OS X 10_15_7) AppleWebKit/537.36 (KHTML, like Gecko) Chrome/120.0.0.0 Safari/537.36" version="22.1.18" etag="d_wayPJEfOYW5rTGjLPk" type="github">
  <diagram name="Page-1" id="PjcVRj0q3i69ykHGZig3">
    <mxGraphModel>
      <root>
        <mxCell id="0" />
        <mxCell id="1" parent="0" />
      </root>
    </mxGraphModel>
  </diagram>
</mxfile>
